<svg xmlns="http://www.w3.org/2000/svg" xmlns:xlink="http://www.w3.org/1999/xlink" viewBox="0,0,256,256" width="32px" height="32px" fill-rule="nonzero"><g fill="#ffffff" fill-rule="nonzero" stroke="none" stroke-width="1" stroke-linecap="butt" stroke-linejoin="miter" stroke-miterlimit="10" stroke-dasharray="" stroke-dashoffset="0" font-family="none" font-weight="none" font-size="none" text-anchor="none" style="mix-blend-mode: normal"><g transform="scale(8,8)"><path d="M8,4v2h16v-2zM24,6v2h2v-2zM26,8v16h2v-16zM26,24h-2v2h2zM24,26h-16v2h16zM8,26v-2h-2v2zM6,24v-16h-2v16zM6,8h2v-2h-2zM21,9v2h2v-2zM13,11v2h6v-2zM19,13v6h2v-6zM19,19h-6v2h6zM13,19v-6h-2v6z"></path></g></g></svg>